<?xml version="1.0" encoding="iso-8859-1"?>
<!-- Generator: Adobe Illustrator 24.2.3, SVG Export Plug-In . SVG Version: 6.00 Build 0)  -->
<svg version="1.1" id="Warstwa_1" xmlns="http://www.w3.org/2000/svg" xmlns:xlink="http://www.w3.org/1999/xlink" x="0px" y="0px"
	 viewBox="0 0 595.276 841.89" style="enable-background:new 0 0 595.276 841.89;" xml:space="preserve">
<circle style="stroke:#000000;stroke-miterlimit:10;" cx="298.5" cy="319.39" r="161.5"/>
<g>
	<path style="fill:#DBAB00;" d="M296.829,322.482c-3.864,0-9.532-2.062-12.108-4.895c-3.349-3.349-4.895-6.956-6.183-11.593
		c-10.305,6.956-22.929,16.488-30.916,16.488c-18.292,0-31.431-15.2-31.431-31.688c0-12.624,6.956-20.868,21.125-25.763
		c15.715-5.41,35.038-12.108,40.706-16.746v-5.153c0-18.292-9.275-28.854-22.671-28.854c-5.926,0-9.532,2.834-12.109,5.925
		c-2.834,3.607-4.637,9.275-6.956,16.746c-1.288,4.122-3.606,5.925-7.471,5.925c-4.895,0-11.335-5.152-11.335-11.335
		c0-3.607,3.349-6.698,8.501-10.305c7.472-5.41,22.414-14.942,37.099-18.034c7.729,0,15.716,2.319,21.641,6.956
		c9.017,7.729,13.139,16.488,13.139,29.885v49.722c0,11.851,4.379,15.458,9.017,15.458c3.092,0,9.84-0.24,9.84-0.24l0.564,17.501
		C317.28,322.482,303.937,322.482,296.829,322.482z M278.022,257.301c-5.668,2.834-18.034,8.244-23.959,10.821
		c-9.79,4.379-15.716,9.274-15.716,18.807c0,13.654,10.305,19.837,18.549,19.837c6.699,0,15.973-4.122,21.126-9.274
		C278.022,285.383,278.022,269.41,278.022,257.301z"/>
</g>
<g>
	<g>
		<path style="fill:#DBAB00;" d="M312.199,311.276v-6.956c0-18.549,6.44-37.614,22.671-51.526
			c9.018-7.987,18.807-12.366,28.854-13.654c8.76,0.257,16.746,3.349,20.868,8.244c2.318,2.834,2.834,5.41,1.546,9.017
			c-0.773,2.577-3.607,6.184-6.184,8.244c-2.834,1.804-4.895,1.289-7.471-0.515c-5.152-4.637-12.366-10.562-20.868-10.562
			c-19.064,0-19.064,26.021-19.064,45.6v12.109h27.309c1.546,2.318,0.258,8.759-2.576,10.562h-24.732v74.455
			c0,18.549,2.834,18.807,22.156,20.868v7.214h-60.543v-7.214c16.23-1.545,18.034-2.576,18.034-19.322v-76.001h-18.292l-1.03-2.834
			l5.668-7.729H312.199z"/>
	</g>
</g>
</svg>
